<?xml version="1.0" encoding="utf-8"?>
<!-- Generator: Adobe Illustrator 16.0.0, SVG Export Plug-In . SVG Version: 6.00 Build 0)  -->
<!DOCTYPE svg PUBLIC "-//W3C//DTD SVG 1.1//EN" "http://www.w3.org/Graphics/SVG/1.1/DTD/svg11.dtd">
<svg version="1.1" id="Layer_1" xmlns="http://www.w3.org/2000/svg" xmlns:xlink="http://www.w3.org/1999/xlink" x="0px" y="0px"
	 width="512px" height="128px" viewBox="0 0 512 128" enable-background="new 0 0 512 128" xml:space="preserve">
<g>
	<g>
		<path d="M198.271,74.232l-34.995-52.786l-0.026,0.018v-0.058h-17.369v83.938h17.369V52.713l34.886,52.619l0.134-0.089v0.101
			h17.369V21.407h-17.369V74.232z M290.138,74.232l-34.992-52.786l-0.028,0.018v-0.058h-17.363v83.938h17.363V52.713l34.885,52.619
			l0.135-0.089v0.101h17.37V21.407h-17.37V74.232z M18.084,100.648c-0.362,8.629-4.792,14.115-9.416,19.327
			c-0.028,0.025,15.484,7.707,15.531,7.67c6.389-5.04,11.02-10.795,11.249-21.285V21.437H18.084V100.648z M472.595,21.407v2.772
			h10.362l-20.599,59.365l-22.772-59.365h11.007v-2.772H373.96l-17.525,40.197L337.59,21.407h-18.967l28.328,61.957l-10.671,24.479
			h18.967l36.472-83.664h10.322v80.803h-15.135v2.856h39.31v-2.856h-15.101V24.179h10.072l31.806,83.659h8.62l29.947-83.659h10.771
			v-2.772H472.595z M90.832,21.971c-23.343,0-42.276,18.688-42.276,41.743c0,23.052,18.933,41.744,42.276,41.744
			c23.355,0,42.282-18.692,42.282-41.744C133.114,40.658,114.188,21.971,90.832,21.971z M90.832,88.31
			c-13.752,0-24.907-11.009-24.907-24.596c0-13.585,11.155-24.596,24.907-24.596c13.758,0,24.913,11.011,24.913,24.596
			C115.745,77.3,104.59,88.31,90.832,88.31z"/>
	</g>
</g>
</svg>
